<svg width="72" height="38" viewBox="0 0 72 38" fill="none" xmlns="http://www.w3.org/2000/svg">
<g id="Footer Logo">
<path id="Path 19261" d="M36.8135 10.1113H44.3325L47.3015 14.7343L50.3295 10.1113H57.2485L51.6655 18.0113L58.3315 26.6953H50.7825L47.3015 21.3533L43.7495 26.6953H36.9495L42.8945 18.0113L36.8135 10.1113Z" fill="#37B34A"/>
<path id="Path 19262" d="M37.1882 5.49609V0.26709H16.5622V16.6501L5.8072 0.26709H0.450195V26.7031H5.8562L5.8942 10.1941L16.5642 26.7031H37.1842V21.2341L23.2182 21.4041V15.6731L37.1722 15.5021V10.1101L23.2182 10.2821V5.66809L37.1932 5.49609H37.1882Z" fill="white"/>
<path id="Path 19263" d="M49.9014 0.26709H71.5304V5.7411H63.5134L63.4904 26.7041H57.9494L57.9724 5.7411H49.9014V0.26709Z" fill="white"/>
<path id="Path 19264" d="M6.08035 33.6692C6.0873 34.2529 5.95894 34.8304 5.70535 35.3562C5.47772 35.7551 5.15213 36.0893 4.75935 36.3272C4.46572 36.4963 4.1455 36.6143 3.81235 36.6762C3.40966 36.7473 3.00124 36.7808 2.59235 36.7762H0.506348V30.8102H2.64735C3.06498 30.804 3.48207 30.8429 3.89135 30.9262C4.20015 30.9868 4.49703 31.0972 4.77035 31.2532C5.17249 31.4852 5.50637 31.8191 5.73835 32.2212C5.97882 32.665 6.09686 33.1647 6.08035 33.6692ZM4.51735 33.6562C4.52792 33.3211 4.45543 32.9885 4.30635 32.6882C4.15569 32.4121 3.92004 32.1919 3.63435 32.0602C3.48243 31.988 3.32123 31.9372 3.15535 31.9092C2.91208 31.8769 2.6667 31.8632 2.42135 31.8682H2.03435V35.7052H2.42635C2.69394 35.7125 2.96165 35.6961 3.22635 35.6562C3.3989 35.6247 3.56554 35.5667 3.72035 35.4842C3.98246 35.3478 4.19564 35.1332 4.33035 34.8702C4.46985 34.4817 4.53762 34.071 4.53035 33.6582L4.51735 33.6562Z" fill="white"/>
<path id="Path 19265" d="M14.1412 35.0669H10.8762C10.8867 35.2155 10.9319 35.3596 11.0084 35.4875C11.0848 35.6153 11.1903 35.7233 11.3162 35.8029C11.6391 36.0046 12.0175 36.0988 12.3972 36.0719C12.6959 36.0728 12.9923 36.02 13.2722 35.9159C13.5091 35.8334 13.7338 35.7194 13.9402 35.5769H14.0982V36.6859C13.8033 36.8024 13.4988 36.8931 13.1882 36.9569C12.8761 37.0161 12.5589 37.0445 12.2412 37.0419C11.5103 37.0905 10.785 36.8849 10.1882 36.4599C9.94844 36.2574 9.75888 36.0019 9.63447 35.7137C9.51006 35.4255 9.45419 35.1124 9.47124 34.7989C9.44919 34.4942 9.49457 34.1883 9.60415 33.9032C9.71373 33.618 9.88482 33.3604 10.1052 33.1489C10.6194 32.71 11.2833 32.4868 11.9582 32.5259C12.5505 32.4813 13.1364 32.6725 13.5882 33.0579C13.7796 33.2614 13.927 33.502 14.0215 33.7649C14.1159 34.0277 14.1553 34.3072 14.1372 34.5859L14.1412 35.0669ZM12.7212 34.2519C12.7321 34.0148 12.6532 33.7824 12.5002 33.6009C12.4122 33.5208 12.3086 33.4597 12.1959 33.4215C12.0832 33.3833 11.9638 33.3688 11.8452 33.3789C11.6004 33.3699 11.3599 33.4454 11.1642 33.5929C11.0714 33.6756 10.9972 33.7771 10.9469 33.8908C10.8965 34.0044 10.8711 34.1276 10.8722 34.2519H12.7212Z" fill="white"/>
<path id="Path 19266" d="M22.2122 37.0172H20.7872V34.8872C20.7874 34.7137 20.7777 34.5405 20.7582 34.3682C20.7519 34.2344 20.7199 34.103 20.6642 33.9812C20.6125 33.8875 20.5303 33.8144 20.4312 33.7742C20.2948 33.7245 20.1501 33.7021 20.0052 33.7082C19.8736 33.7107 19.743 33.7316 19.6172 33.7702C19.4658 33.8178 19.3205 33.8829 19.1842 33.9642V37.0162H17.7432V32.7072H19.1732V33.1892C19.3981 33.0137 19.6431 32.8656 19.9032 32.7482C20.1475 32.6432 20.4112 32.5908 20.6772 32.5942C20.8826 32.5827 21.0884 32.6127 21.282 32.6824C21.4756 32.7522 21.6532 32.8603 21.8042 33.0002C22.0936 33.3368 22.2375 33.7745 22.2042 34.2172V37.0122L22.2122 37.0172Z" fill="white"/>
<path id="Path 19267" d="M28.9621 36.829C28.8051 36.886 28.6448 36.9337 28.4821 36.972C28.3101 36.993 28.0941 36.952 27.8461 36.952C27.4081 36.9856 26.9715 36.8704 26.6071 36.625C26.4585 36.4825 26.3447 36.3077 26.2745 36.1142C26.2043 35.9207 26.1795 35.7136 26.2021 35.509V33.646H25.6201V32.714H26.2021V31.48H27.6321V32.71H28.9621V33.642H27.6321V35.417C27.6329 35.5203 27.6547 35.6223 27.6961 35.717C27.7348 35.8075 27.8028 35.8825 27.8891 35.93C28.0168 35.9896 28.1575 36.016 28.2981 36.007C28.3961 36.0034 28.4935 35.9887 28.5881 35.963C28.6743 35.9439 28.7582 35.9154 28.8381 35.878H28.9541L28.9601 36.821L28.9621 36.829Z" fill="white"/>
<path id="Path 19268" d="M35.1062 36.56C35.0542 36.484 34.9122 36.5689 34.7942 36.6489C34.6933 36.723 34.5862 36.7882 34.4742 36.844C34.3342 36.9047 34.188 36.9499 34.0382 36.979C33.8733 37.0096 33.7059 37.0244 33.5382 37.023C33.1482 37.0332 32.769 36.8948 32.4772 36.6359C32.3451 36.5373 32.2395 36.4075 32.1697 36.2581C32.0999 36.1088 32.0681 35.9445 32.0772 35.7799C32.0648 35.5044 32.1416 35.2323 32.2962 35.0039C32.4562 34.7955 32.6698 34.6345 32.9142 34.5379C33.228 34.409 33.5587 34.3262 33.8962 34.292C34.2832 34.243 34.6962 34.207 35.1122 34.185V34.1599C35.1195 34.0567 35.0945 33.9537 35.0408 33.8652C34.9871 33.7767 34.9072 33.7071 34.8122 33.666C34.5287 33.5616 34.2269 33.5157 33.9252 33.531C33.6705 33.5331 33.4175 33.5725 33.1742 33.648C32.9769 33.7017 32.7826 33.7662 32.5922 33.841H32.4602V32.8009C32.6112 32.7629 32.8602 32.718 33.1962 32.664C33.5337 32.6118 33.8747 32.5857 34.2162 32.586C34.8242 32.5399 35.4329 32.6654 35.9732 32.948C36.1536 33.0751 36.2981 33.2466 36.3927 33.446C36.4874 33.6454 36.5288 33.8658 36.5132 34.086V37.016H35.1002V36.56H35.1062ZM35.1062 35.8889V34.995C34.9122 35.01 34.7062 35.0319 34.4792 35.0589C34.3066 35.076 34.1357 35.1071 33.9682 35.1519C33.8437 35.1854 33.7307 35.2521 33.6412 35.3449C33.5618 35.4349 33.5202 35.5521 33.5252 35.672C33.5229 35.745 33.5307 35.818 33.5482 35.8889C33.5693 35.9533 33.6098 36.0096 33.6642 36.0499C33.7276 36.1045 33.8024 36.1442 33.8832 36.166C34.0104 36.1948 34.1408 36.2068 34.2712 36.2019C34.4195 36.2018 34.5664 36.1736 34.7042 36.1189C34.85 36.065 34.9854 35.9862 35.1042 35.8859L35.1062 35.8889Z" fill="white"/>
<path id="Rectangle 5785" d="M41.8582 31.0488H40.4292V37.0158H41.8582V31.0488Z" fill="white"/>
<path id="Path 19269" d="M55.5002 37.1298H51.2402V31.0488H52.7622V35.9118H55.4942L55.5002 37.1298Z" fill="white"/>
<path id="Path 19270" d="M61.628 36.56L61.342 36.76C61.2419 36.8344 61.1351 36.8993 61.023 36.954C60.8829 37.014 60.7372 37.0599 60.588 37.091C60.4231 37.1209 60.2556 37.135 60.088 37.133C59.6978 37.1431 59.3183 37.0048 59.026 36.746C58.8874 36.6263 58.7773 36.4772 58.7034 36.3096C58.6295 36.142 58.5939 35.9601 58.599 35.777C58.5864 35.5024 58.6625 35.2311 58.816 35.003C58.9761 34.7947 59.1897 34.6336 59.434 34.537C59.748 34.4078 60.0792 34.3249 60.417 34.291C60.805 34.242 61.217 34.205 61.634 34.184V34.16C61.6413 34.0567 61.6164 33.9538 61.5626 33.8653C61.5089 33.7768 61.429 33.7072 61.334 33.666C61.0509 33.5616 60.7494 33.5156 60.448 33.531C60.1927 33.5328 59.939 33.5718 59.695 33.647C59.427 33.729 59.237 33.79 59.113 33.84H58.982V32.8C59.133 32.762 59.369 32.717 59.718 32.663C60.0552 32.6108 60.3958 32.5847 60.737 32.585C61.3453 32.5389 61.9544 32.6644 62.495 32.947C62.6754 33.0741 62.8199 33.2457 62.9146 33.445C63.0092 33.6444 63.0506 33.8649 63.035 34.085V37.129H61.622L61.628 36.56ZM61.628 35.889V34.995C61.435 35.01 61.228 35.032 61 35.059C60.8274 35.076 60.6565 35.1071 60.489 35.152C60.365 35.1853 60.2526 35.2521 60.164 35.345C60.0847 35.435 60.0431 35.5522 60.048 35.672C60.0454 35.7451 60.0535 35.8182 60.072 35.889C60.0931 35.9537 60.1341 36.01 60.189 36.05C60.2516 36.1049 60.3258 36.1449 60.406 36.167C60.5372 36.1966 60.6717 36.2087 60.806 36.203C60.9565 36.2018 61.1054 36.1723 61.245 36.116C61.3862 36.0607 61.5171 35.9819 61.632 35.883L61.628 35.889Z" fill="white"/>
<path id="Path 19271" d="M71.5942 34.803C71.6176 35.4417 71.4111 36.0676 71.0123 36.567C70.8321 36.7729 70.6092 36.937 70.3591 37.0479C70.109 37.1587 69.8378 37.2137 69.5643 37.209C69.3445 37.2116 69.1252 37.1854 68.9122 37.131C68.7111 37.066 68.5287 36.9534 68.3802 36.803V37.209H66.9482V31.209H68.3802V33.16C68.587 32.9979 68.8118 32.8603 69.0502 32.75C69.2993 32.6406 69.5693 32.587 69.8412 32.593C70.0887 32.5791 70.3358 32.6247 70.562 32.726C70.7882 32.8272 70.9868 32.9812 71.1412 33.175C71.4671 33.6539 71.627 34.2265 71.5963 34.805L71.5942 34.803ZM70.1232 34.832C70.1434 34.5247 70.0765 34.218 69.9302 33.947C69.8468 33.8377 69.7366 33.7518 69.6104 33.6975C69.4841 33.6432 69.3459 33.6224 69.2092 33.637C69.0688 33.6392 68.9293 33.6597 68.7943 33.698C68.6524 33.7377 68.516 33.7947 68.3882 33.868V36.027C68.4828 36.0616 68.5807 36.0868 68.6802 36.102C68.7904 36.1152 68.9013 36.1216 69.0123 36.121C69.1677 36.1335 69.3238 36.1111 69.4695 36.0556C69.6151 36.0001 69.7466 35.9127 69.8542 35.8C70.0561 35.5195 70.1514 35.1764 70.1232 34.832Z" fill="white"/>
</g>
</svg>
