<svg width="26" height="26" viewBox="0 0 26 26" fill="none" xmlns="http://www.w3.org/2000/svg">
<g id="facebook">
<g id="Group 3540">
<path id="Ellipse 1" d="M13 26C20.1797 26 26 20.1797 26 13C26 5.8203 20.1797 0 13 0C5.8203 0 0 5.8203 0 13C0 20.1797 5.8203 26 13 26Z" fill="#395978"/>
<path id="fb" d="M16.894 8H9.526C9.12144 8.00053 8.73361 8.16147 8.44754 8.44754C8.16147 8.73361 8.00053 9.12144 8 9.526V16.894C8.00053 17.2986 8.16147 17.6864 8.44754 17.9725C8.73361 18.2585 9.12144 18.4195 9.526 18.42H12.6V14.737H11.379V12.9H12.6V11.663C12.6008 11.1776 12.794 10.7124 13.1372 10.3692C13.4804 10.026 13.9456 9.83279 14.431 9.832H16.283V11.663H14.431V12.9H16.283L15.978 14.737H14.431V18.42H16.894C17.2986 18.4195 17.6864 18.2585 17.9725 17.9725C18.2585 17.6864 18.4195 17.2986 18.42 16.894V9.526C18.4195 9.12144 18.2585 8.73361 17.9725 8.44754C17.6864 8.16147 17.2986 8.00053 16.894 8Z" fill="white"/>
</g>
</g>
</svg>
