<svg width="26" height="26" viewBox="0 0 26 26" fill="none" xmlns="http://www.w3.org/2000/svg">
<g id="instagram">
<path id="Ellipse 6" d="M13 26C20.1797 26 26 20.1797 26 13C26 5.8203 20.1797 0 13 0C5.8203 0 0 5.8203 0 13C0 20.1797 5.8203 26 13 26Z" fill="#395978"/>
<g id="insta">
<g id="Group 3539">
<path id="Path 19207" d="M15.543 8H10.8C10.0574 8 9.3452 8.295 8.8201 8.8201C8.295 9.3452 8 10.0574 8 10.8V15.544C8 16.2866 8.295 16.9988 8.8201 17.5239C9.3452 18.049 10.0574 18.344 10.8 18.344H15.543C16.2856 18.344 16.9978 18.049 17.5229 17.5239C18.048 16.9988 18.343 16.2866 18.343 15.544V10.8C18.343 10.0574 18.048 9.3452 17.5229 8.8201C16.9978 8.295 16.2856 8 15.543 8ZM17.736 15.544C17.7342 16.1251 17.5025 16.6818 17.0916 17.0926C16.6808 17.5035 16.1241 17.7352 15.543 17.737H10.8C10.2186 17.7357 9.66136 17.5043 9.25006 17.0933C8.83876 16.6824 8.60685 16.1254 8.605 15.544V10.8C8.60658 10.2184 8.83838 9.66115 9.24971 9.25001C9.66104 8.83886 10.2184 8.60732 10.8 8.606H15.543C16.1242 8.60785 16.6811 8.83963 17.092 9.25071C17.5029 9.66179 17.7344 10.2188 17.736 10.8V15.544Z" fill="white"/>
<path id="Path 19208" d="M13.1713 10.3398C12.6119 10.3398 12.0652 10.5057 11.6001 10.8164C11.135 11.1272 10.7726 11.5689 10.5585 12.0856C10.3445 12.6024 10.2885 13.171 10.3976 13.7196C10.5067 14.2681 10.7761 14.772 11.1716 15.1675C11.5671 15.563 12.071 15.8324 12.6195 15.9415C13.1681 16.0506 13.7367 15.9946 14.2535 15.7806C14.7702 15.5665 15.2119 15.2041 15.5227 14.739C15.8334 14.2739 15.9993 13.7272 15.9993 13.1678C15.9985 12.4181 15.7003 11.6992 15.1701 11.169C14.6399 10.6388 13.9211 10.3406 13.1713 10.3398ZM13.1713 15.3898C12.7318 15.3898 12.3022 15.2595 11.9368 15.0154C11.5714 14.7712 11.2866 14.4242 11.1184 14.0182C10.9502 13.6121 10.9062 13.1654 10.992 12.7344C11.0777 12.3033 11.2893 11.9074 11.6001 11.5966C11.9108 11.2859 12.3067 11.0743 12.7378 10.9885C13.1688 10.9028 13.6156 10.9468 14.0216 11.115C14.4276 11.2832 14.7746 11.568 15.0188 11.9334C15.2629 12.2988 15.3933 12.7284 15.3933 13.1678C15.3935 13.4599 15.3363 13.7492 15.2247 14.0191C15.1132 14.289 14.9496 14.5343 14.7433 14.741C14.537 14.9477 14.2919 15.1118 14.0222 15.2238C13.7525 15.3358 13.4633 15.3936 13.1713 15.3938V15.3898Z" fill="white"/>
<path id="Path 19209" d="M16.0669 9.33887C15.9016 9.33887 15.74 9.38789 15.6025 9.47975C15.465 9.57161 15.3579 9.70218 15.2946 9.85494C15.2313 10.0077 15.2148 10.1758 15.247 10.338C15.2793 10.5001 15.3589 10.6491 15.4758 10.766C15.5927 10.8829 15.7417 10.9625 15.9038 10.9948C16.066 11.0271 16.2341 11.0105 16.3869 10.9472C16.5396 10.884 16.6702 10.7768 16.7621 10.6393C16.8539 10.5018 16.9029 10.3402 16.9029 10.1749C16.9027 9.95323 16.8145 9.74074 16.6578 9.58401C16.5011 9.42729 16.2886 9.33913 16.0669 9.33887ZM16.0669 10.4039C16.0216 10.4039 15.9774 10.3904 15.9397 10.3653C15.902 10.3401 15.8727 10.3043 15.8554 10.2625C15.8381 10.2207 15.8335 10.1746 15.8424 10.1302C15.8512 10.0858 15.873 10.045 15.905 10.0129C15.937 9.98091 15.9778 9.9591 16.0223 9.95026C16.0667 9.94143 16.1127 9.94596 16.1546 9.96329C16.1964 9.98063 16.2322 10.01 16.2574 10.0476C16.2825 10.0853 16.2959 10.1296 16.2959 10.1749C16.2957 10.2355 16.2715 10.2936 16.2286 10.3365C16.1857 10.3794 16.1276 10.4036 16.0669 10.4039Z" fill="white"/>
</g>
</g>
</g>
</svg>
