<svg width="26" height="26" viewBox="0 0 26 26" fill="none" xmlns="http://www.w3.org/2000/svg">
<g id="twitter">
<path id="Ellipse 5" d="M13 26C20.1797 26 26 20.1797 26 13C26 5.8203 20.1797 0 13 0C5.8203 0 0 5.8203 0 13C0 20.1797 5.8203 26 13 26Z" fill="#395978"/>
<g id="twiter">
<path id="XMLID_827_" d="M18.6255 10.0236C18.4548 10.0994 18.279 10.1636 18.0995 10.2156C18.3133 9.97375 18.4744 9.69006 18.5725 9.38259C18.5824 9.34888 18.582 9.31297 18.5712 9.27953C18.5604 9.24609 18.5399 9.21667 18.5121 9.19509C18.4844 9.17351 18.4508 9.16078 18.4158 9.15855C18.3807 9.15632 18.3458 9.1647 18.3155 9.18259C17.936 9.40816 17.5227 9.57156 17.0915 9.66659C16.7629 9.34493 16.3466 9.12742 15.8949 9.04132C15.4432 8.95521 14.9761 9.00435 14.5522 9.18256C14.1283 9.36077 13.7664 9.66014 13.5119 10.0431C13.2574 10.4261 13.1216 10.8757 13.1215 11.3356C13.1215 11.4359 13.1279 11.5361 13.1405 11.6356C12.3465 11.5644 11.5747 11.3352 10.8706 10.9613C10.1665 10.5874 9.54425 10.0765 9.04053 9.45859C9.02265 9.43645 8.99963 9.419 8.97348 9.40777C8.94733 9.39653 8.91884 9.39184 8.89047 9.39411C8.86209 9.39637 8.8347 9.40552 8.81067 9.42077C8.78663 9.43601 8.76668 9.45689 8.75253 9.48159C8.50968 9.8994 8.40227 10.3822 8.44507 10.8635C8.48787 11.3449 8.67878 11.8012 8.99153 12.1696C8.88335 12.1321 8.77862 12.0852 8.67853 12.0296C8.65216 12.0147 8.62237 12.0069 8.59208 12.007C8.56179 12.0071 8.53204 12.015 8.50574 12.03C8.47944 12.045 8.45748 12.0666 8.44202 12.0926C8.42656 12.1187 8.41812 12.1483 8.41753 12.1786C8.41753 12.1886 8.41753 12.1996 8.41753 12.2096C8.41829 12.6145 8.52398 13.0124 8.7243 13.3643C8.92463 13.7162 9.21274 14.0102 9.56053 14.2176C9.50153 14.2116 9.44153 14.2026 9.38253 14.1916C9.35261 14.1857 9.32167 14.1878 9.29278 14.1976C9.2639 14.2074 9.23807 14.2245 9.21786 14.2473C9.19765 14.2702 9.18375 14.2979 9.17756 14.3278C9.17136 14.3576 9.17308 14.3886 9.18253 14.4176C9.30735 14.8047 9.53117 15.1525 9.83182 15.4265C10.1325 15.7005 10.4995 15.8912 10.8965 15.9796C10.2349 16.394 9.46928 16.6125 8.68853 16.6096C8.52311 16.6096 8.35782 16.5999 8.19353 16.5806C8.15485 16.5765 8.1159 16.5854 8.08283 16.6058C8.04976 16.6263 8.02446 16.6573 8.01093 16.6937C7.9974 16.7302 7.9964 16.7701 8.0081 16.8072C8.0198 16.8443 8.04353 16.8765 8.07553 16.8986C9.09126 17.5513 10.2732 17.8984 11.4805 17.8986C12.3661 17.919 13.2454 17.7449 14.0564 17.3886C14.8674 17.0324 15.5905 16.5026 16.1745 15.8366C17.2079 14.6586 17.7836 13.1485 17.7965 11.5816C17.7965 11.5176 17.7965 11.4526 17.7965 11.3886C18.2047 11.081 18.558 10.7068 18.8415 10.2816C18.8631 10.25 18.8737 10.2123 18.8718 10.1741C18.8699 10.136 18.8556 10.0995 18.831 10.0702C18.8064 10.041 18.7729 10.0206 18.7356 10.0122C18.6983 10.0037 18.6603 10.0078 18.6255 10.0236Z" fill="white"/>
</g>
</g>
</svg>
