<svg width="26" height="26" viewBox="0 0 26 26" fill="none" xmlns="http://www.w3.org/2000/svg">
<g id="youtube">
<path id="Ellipse 7" d="M13 26C20.1797 26 26 20.1797 26 13C26 5.8203 20.1797 0 13 0C5.8203 0 0 5.8203 0 13C0 20.1797 5.8203 26 13 26Z" fill="#395978"/>
<g id="youtube_2">
<path id="Subtraction 1" d="M13.1168 17.37C11.6368 17.37 9.73482 17.347 8.96282 17.301C8.25682 17.252 7.88682 17.163 7.54382 16.557C7.10673 15.4909 6.92985 14.336 7.02782 13.188C6.92636 12.0337 7.10331 10.8718 7.54382 9.8C7.87682 9.216 8.23482 9.1 8.96382 9.064C9.72782 9.018 11.6798 9 13.1168 9C14.5538 9 16.5018 9.018 17.2668 9.068C17.9968 9.109 18.3558 9.22 18.6868 9.804C19.1291 10.8715 19.3068 12.03 19.2048 13.181C19.3087 14.332 19.1309 15.491 18.6868 16.558C18.3608 17.138 18.0018 17.252 17.2698 17.3C16.4968 17.347 14.5958 17.37 13.1168 17.37ZM11.5938 10.9V15.467L15.3938 13.184L11.5938 10.9Z" fill="white"/>
</g>
</g>
</svg>
